<?xml version="1.0" encoding="UTF-8" standalone="no"?>
<svg width="14px" height="16px" viewBox="0 0 14 16" version="1.1" xmlns="http://www.w3.org/2000/svg" xmlns:xlink="http://www.w3.org/1999/xlink" xmlns:sketch="http://www.bohemiancoding.com/sketch/ns">
    <!-- Generator: Sketch 3.3.3 (12072) - http://www.bohemiancoding.com/sketch -->
    <title>Shape Copy</title>
    <desc>Created with Sketch.</desc>
    <defs></defs>
    <g id="Profile" stroke="none" stroke-width="1" fill="none" fill-rule="evenodd" sketch:type="MSPage">
        <g id="Profile---landing" sketch:type="MSArtboardGroup" transform="translate(-160.000000, -1176.000000)" fill="#4A90E2">
            <g id="sidebar" sketch:type="MSLayerGroup" transform="translate(61.000000, 676.000000)">
                <g id="interventions" transform="translate(0.000000, 350.000000)" sketch:type="MSShapeGroup">
                    <g id="xblock" transform="translate(1.000000, 47.000000)">
                        <g id="July-21,-2015----+-Add-end-date-+-Shape-Copy" transform="translate(0.000000, 102.000000)">
                            <path d="M108.888889,9.8 L105,9.8 L105,13.8 L108.888889,13.8 L108.888889,9.8 L108.888889,9.8 Z M108.111111,1 L108.111111,2.6 L101.888889,2.6 L101.888889,1 L100.333333,1 L100.333333,2.6 L99.5555556,2.6 C98.7,2.6 98,3.32 98,4.2 L98,15.4 C98,16.28 98.7,17 99.5555556,17 L110.444444,17 C111.3,17 112,16.28 112,15.4 L112,4.2 C112,3.32 111.3,2.6 110.444444,2.6 L109.666667,2.6 L109.666667,1 L108.111111,1 L108.111111,1 Z M110.444444,15.4 L99.5555556,15.4 L99.5555556,6.6 L110.444444,6.6 L110.444444,15.4 L110.444444,15.4 Z" id="Shape-Copy"></path>
                        </g>
                    </g>
                </g>
            </g>
        </g>
    </g>
</svg>