<?xml version="1.0" encoding="UTF-8" standalone="no"?>
<svg width="111px" height="109px" viewBox="0 0 111 109" version="1.1" xmlns="http://www.w3.org/2000/svg" xmlns:xlink="http://www.w3.org/1999/xlink" xmlns:sketch="http://www.bohemiancoding.com/sketch/ns">
    <!-- Generator: Sketch 3.3.3 (12072) - http://www.bohemiancoding.com/sketch -->
    <title>Bigmoon</title>
    <desc>Created with Sketch.</desc>
    <defs></defs>
    <g id="Page-1" stroke="none" stroke-width="1" fill="none" fill-rule="evenodd" sketch:type="MSPage">
        <g id="Bigmoon" sketch:type="MSLayerGroup" transform="translate(2.000000, 1.000000)" stroke-width="2" stroke="#999999">
            <g id="stroked" sketch:type="MSShapeGroup">
                <g id="Weather">
                    <g id="Bigmoon">
                        <path d="M73.843293,0.787333292 C80.682515,3.70684929 87.0372133,8.06914788 92.4351613,13.8577384 C113.144173,36.0654344 111.929249,70.8562998 89.721553,91.5653113 C67.5138572,112.274323 32.7229918,111.059399 12.0139803,88.8517029 C6.61603232,83.0631124 2.7076414,76.4195953 0.272317214,69.3933781 C19.6714966,77.6744684 42.9689162,74.3476446 59.3880215,59.0365812 C75.8071268,43.7255178 80.7509925,20.7169171 73.843293,0.787333292 L73.843293,0.787333292 Z" id="Oval-11"></path>
                        <path d="M42.4537785,69.7509392 C42.4537785,69.7509392 57.2832032,72.8847656 62.718488,85.5093867" id="Path-2758"></path>
                        <path d="M78.3529412,48.7058824 L88.941176,59.2941176" id="Path-2759"></path>
                        <path d="M76.2352941,57.1764706 L80.4705882,59.2941176" id="Path-2759"></path>
                    </g>
                </g>
            </g>
        </g>
    </g>
</svg>