<?xml version="1.0" encoding="UTF-8" standalone="no"?>
<svg width="134px" height="100px" viewBox="0 0 134 100" version="1.1" xmlns="http://www.w3.org/2000/svg" xmlns:xlink="http://www.w3.org/1999/xlink" xmlns:sketch="http://www.bohemiancoding.com/sketch/ns">
    <!-- Generator: Sketch 3.3.2 (12043) - http://www.bohemiancoding.com/sketch -->
    <title>Bonsai</title>
    <desc>Created with Sketch.</desc>
    <defs></defs>
    <g id="Welcome" stroke="none" stroke-width="1" fill="none" fill-rule="evenodd" sketch:type="MSPage">
        <g id="Student-profile-V7" sketch:type="MSArtboardGroup" transform="translate(-445.000000, -346.000000)" stroke="#999999" stroke-width="2">
            <g id="Sam-has-no-behavior--+-Looks-great!-+-Bonsai" sketch:type="MSLayerGroup" transform="translate(380.000000, 347.000000)">
                <g id="Bonsai" transform="translate(66.000000, 0.000000)" sketch:type="MSShapeGroup">
                    <path d="M25,65 L108,65 L101.083333,92 L31.9166667,92 L25,65 L25,65 Z" id="Rectangle-1238"></path>
                    <path d="M64.2668246,64 C64.2668246,64 79.4749111,52.3380423 71.8708679,39.8151596 C64.2668246,27.292277 54,33.5770348 54,33.5770348" id="Path-2416"></path>
                    <path d="M41.9965622,34.680257 C39.834204,39.0135548 35.2748054,42 30,42 C26.8468442,42 23.94933,40.9328327 21.6666667,39.1487279 L21.6666667,39.1487279 C19.3840034,40.9328327 16.486489,42 13.3333333,42 C5.96953666,42 0,36.1797017 0,28.9999999 C0,21.8202984 5.96953666,16.0000001 13.3333333,16.0000001 C14.4866885,16.0000001 15.6058405,16.1427802 16.6732101,16.4112007 L16.6732101,16.4112007 C16.6688586,16.2746539 16.6666667,16.1375765 16.6666667,16.0000001 C16.6666667,8.82029824 22.6362033,3 30,3 C35.2748054,3 39.834204,5.98644519 41.9965622,10.319743 C43.4499674,9.7897655 45.0236102,9.49999999 46.6666666,9.49999999 C54.0304634,9.49999999 60,15.3202982 60,22.5 C60,29.6797018 54.0304634,35.5000001 46.6666666,35.5000001 C45.0236102,35.5000001 43.4499674,35.2102344 41.9965622,34.680257 L41.9965622,34.680257 Z" id="Oval-1013"></path>
                    <path d="M110.776813,27.1715471 C106.962417,28.8184646 102.255954,28.5200622 98.6851948,26.0564728 C96.5506781,24.5837964 95.1681014,22.5762125 94.590648,20.4162229 L94.590648,20.4162229 C92.077621,20.443984 89.5372754,19.7450092 87.4027587,18.2723328 C82.4178647,14.8330833 81.5340279,8.47646352 85.4286539,4.07442485 C89.3232799,-0.327613642 96.521553,-1.10810846 101.506447,2.33114108 C102.287206,2.86981375 102.967361,3.48005366 103.544308,4.14314154 L103.544308,4.14314154 C103.615432,4.05738925 103.688306,3.97232024 103.762934,3.88796899 C107.65756,-0.514069578 114.855833,-1.29456426 119.840727,2.14468514 C123.411487,4.60827457 124.877958,8.5687919 123.991163,12.2355614 C125.262526,12.5894307 126.484981,13.1467362 127.597241,13.914123 C132.582135,17.3533726 133.465972,23.7099924 129.571346,28.1120309 C125.67672,32.5140694 118.478447,33.2945644 113.493553,29.8553148 C112.381292,29.087928 111.473204,28.1752988 110.776813,27.1715471 L110.776813,27.1715471 L110.776813,27.1715471 Z" id="Oval-1013"></path>
                    <path d="M73,40 C73,40 85.1331182,29 96,29" id="Path-2417"></path>
                    <path d="M27,98 L104,98" id="Line"></path>
                </g>
            </g>
        </g>
    </g>
</svg>