<svg xmlns="http://www.w3.org/2000/svg" xmlns:xlink="http://www.w3.org/1999/xlink" version="1.1" x="0px" y="0px" viewBox="0 0 100 100" enable-background="new 0 0 100 100" xml:space="preserve"><path fill="#000000" d="M60,42.7c0.6-0.9,0.8-2,0.2-3c-0.5-0.9-1.5-1.4-2.5-1.3V34l3.4-7.6c0.1-0.1,0.1-0.3,0.1-0.5  c0-0.1,0-0.1,0-0.2l-4.9-22c-0.1-0.5-0.5-0.8-1-0.8h-8c-0.5,0-0.9,0.3-1,0.8l-5.2,22c-0.1,0.2,0,0.4,0.1,0.6l3.4,7.6v4.4  c-0.3,0-0.5,0-0.8,0.1c-0.7,0.2-1.3,0.6-1.7,1.2c-0.4,0.6-0.5,1.4-0.3,2.1c0.1,0.4,0.2,0.7,0.5,1c-9.1,14.9-9.8,33.7-1.7,49.2  c0.7,1.4,1.9,2.3,3.3,2.7c0.4,0.1,0.7,0.1,1.1,0.1c0.7,0,1.5-0.2,2.1-0.6c2-1.3,2.6-4,1.4-6.3c-6.7-12.8-6.1-28.4,1.5-40.7  c0.1,0,0.3,0,0.4,0c0.3,0,0.5-0.1,0.8-0.1c0.3,0.1,0.5,0.1,0.8,0.1c0.1,0,0.3,0,0.4,0c7.4,12.5,8,27.7,1.4,40.7  c-1.1,2.3-0.5,5,1.5,6.2c0.6,0.4,1.3,0.6,2,0.6c0.4,0,0.8-0.1,1.1-0.2c1.4-0.4,2.5-1.4,3.2-2.7C69.6,76.1,68.9,57.8,60,42.7z   M58.4,40.7c0.2,0.3,0.1,0.8-0.2,1l-5.8,3.4c-0.1,0-0.1,0.1-0.2,0.1v-1.6l5.3-3.1C57.8,40.3,58.2,40.4,58.4,40.7z M52.2,22  c0.8,0.4,1.4,1.2,1.4,2.2S53,26,52.2,26.3V22z M50.2,26.3c-0.8-0.4-1.4-1.2-1.4-2.2s0.6-1.8,1.4-2.2V26.3z M59.2,25.9l-3.3,7.3  c-0.1,0.2-0.2,0.4-0.2,0.6v5.4l-3.5,2.1V28.5c2-0.5,3.4-2.2,3.4-4.3c0-2.1-1.5-3.9-3.4-4.3V5h2.3L59.2,25.9z M43.2,25.9l5-20.9h2  v14.8c-2,0.5-3.4,2.2-3.4,4.3c0,2.1,1.5,3.9,3.4,4.3v12.8l-3.5-2.1v-5.4c0-0.1,0-0.3-0.1-0.4L43.2,25.9z M44,40.7  c0.1-0.2,0.2-0.3,0.4-0.3c0.2,0,0.4,0,0.5,0.1l5.2,3.1v1.6c0,0-0.1,0-0.1-0.1l-5.8-3.4c-0.2-0.1-0.3-0.2-0.3-0.4  C43.8,41.1,43.9,40.9,44,40.7z M46.7,88.8c0.7,1.3,0.4,3-0.7,3.7c-0.4,0.3-1,0.4-1.5,0.2c-0.8-0.2-1.5-0.8-2-1.7  c-7.7-14.9-7.1-32.8,1.6-47.1l4.1,2.4C40.3,59.2,39.7,75.4,46.7,88.8z M59.9,90.9c-0.4,0.8-1.1,1.5-1.9,1.7  c-0.6,0.2-1.1,0.1-1.6-0.2c-1.1-0.7-1.4-2.3-0.8-3.6c6.8-13.6,6.3-29.4-1.4-42.4l4.1-2.4C66.9,58.4,67.5,75.9,59.9,90.9z"></path></svg>