<svg xmlns="http://www.w3.org/2000/svg" xmlns:xlink="http://www.w3.org/1999/xlink" version="1.1" x="0px" y="0px" viewBox="0 0 100 100" style="enable-background:new 0 0 100 100;" xml:space="preserve"><style type="text/css">
	.st0{fill:#010101;}
</style><g><path class="st0" d="M83.7,45.9h-16v-12l1.3,0.6c0.2,0.1,0.4,0.1,0.6,0.1c0.6,0,1.2-0.3,1.4-0.9c0.3-0.8,0-1.7-0.8-2.1l-18.7-8.2   v-8.1c0-0.1,0-0.2,0-0.3c0-0.1,0-0.2,0-0.3V6.6C51.6,5.7,50.9,5,50,5h-9.8c-0.9,0-1.6,0.7-1.6,1.6v8.1c0,0.9,0.7,1.6,1.6,1.6h8.3   v7.1l-18.7,8.2c-0.8,0.3-1.2,1.3-0.8,2.1c0.3,0.6,0.8,0.9,1.4,0.9c0.2,0,0.4,0,0.6-0.1l1.3-0.6v12h-16c-2.7,0-4.9,2.2-4.9,4.9V74   c0,2.7,2.2,4.9,4.9,4.9h23.6c2.2,0,4-1.8,4-4v-8.7c0-2.5,2-4.5,4.5-4.5h3.1c2.5,0,4.5,2,4.5,4.5v8.7c0,2.2,1.8,4,4,4h23.8   c2.7,0,4.9-2.2,4.9-4.9V50.8C88.6,48.1,86.4,45.9,83.7,45.9z M41.7,13.1v-5h6.7v5H41.7z M85.5,74c0,1-0.8,1.8-1.8,1.8H60   c-0.5,0-0.9-0.4-0.9-0.9v-8.7c0-4.2-3.4-7.6-7.6-7.6h-3.1c-4.2,0-7.6,3.4-7.6,7.6v8.7c0,0.5-0.4,0.9-0.9,0.9H16.3   c-1,0-1.8-0.8-1.8-1.8V50.8c0-1,0.8-1.8,1.8-1.8h17.6c0.9,0,1.6-0.7,1.6-1.6c0-0.1,0-0.1,0-0.2c0-0.1,0-0.1,0-0.2V32.5L50,26.1   l14.6,6.4v14.6c0,0.1,0,0.1,0,0.2c0,0.1,0,0.1,0,0.2c0,0.9,0.7,1.6,1.6,1.6h17.6c1,0,1.8,0.8,1.8,1.8V74z"></path><path class="st0" d="M20.2,53.2c-0.9,0-1.6,0.7-1.6,1.6v4.6c0,0.9,0.7,1.6,1.6,1.6c0.9,0,1.6-0.7,1.6-1.6v-4.6   C21.8,53.9,21.1,53.2,20.2,53.2z"></path><path class="st0" d="M20.2,64.6c-0.9,0-1.6,0.7-1.6,1.6v4.6c0,0.9,0.7,1.6,1.6,1.6c0.9,0,1.6-0.7,1.6-1.6v-4.6   C21.8,65.3,21.1,64.6,20.2,64.6z"></path><path class="st0" d="M27,53.2c-0.9,0-1.6,0.7-1.6,1.6v4.6c0,0.9,0.7,1.6,1.6,1.6c0.9,0,1.6-0.7,1.6-1.6v-4.6   C28.6,53.9,27.9,53.2,27,53.2z"></path><path class="st0" d="M27,64.6c-0.9,0-1.6,0.7-1.6,1.6v4.6c0,0.9,0.7,1.6,1.6,1.6c0.9,0,1.6-0.7,1.6-1.6v-4.6   C28.6,65.3,27.9,64.6,27,64.6z"></path><path class="st0" d="M33.8,53.2c-0.9,0-1.6,0.7-1.6,1.6v4.6c0,0.9,0.7,1.6,1.6,1.6s1.6-0.7,1.6-1.6v-4.6   C35.4,53.9,34.7,53.2,33.8,53.2z"></path><path class="st0" d="M33.8,64.6c-0.9,0-1.6,0.7-1.6,1.6v4.6c0,0.9,0.7,1.6,1.6,1.6s1.6-0.7,1.6-1.6v-4.6   C35.4,65.3,34.7,64.6,33.8,64.6z"></path><path class="st0" d="M66.2,53.2c-0.9,0-1.6,0.7-1.6,1.6v4.6c0,0.9,0.7,1.6,1.6,1.6c0.9,0,1.6-0.7,1.6-1.6v-4.6   C67.8,53.9,67.1,53.2,66.2,53.2z"></path><path class="st0" d="M66.2,64.6c-0.9,0-1.6,0.7-1.6,1.6v4.6c0,0.9,0.7,1.6,1.6,1.6c0.9,0,1.6-0.7,1.6-1.6v-4.6   C67.8,65.3,67.1,64.6,66.2,64.6z"></path><path class="st0" d="M73,53.2c-0.9,0-1.6,0.7-1.6,1.6v4.6c0,0.9,0.7,1.6,1.6,1.6c0.9,0,1.6-0.7,1.6-1.6v-4.6   C74.6,53.9,73.9,53.2,73,53.2z"></path><path class="st0" d="M73,64.6c-0.9,0-1.6,0.7-1.6,1.6v4.6c0,0.9,0.7,1.6,1.6,1.6c0.9,0,1.6-0.7,1.6-1.6v-4.6   C74.6,65.3,73.9,64.6,73,64.6z"></path><path class="st0" d="M79.8,53.2c-0.9,0-1.6,0.7-1.6,1.6v4.6c0,0.9,0.7,1.6,1.6,1.6s1.6-0.7,1.6-1.6v-4.6   C81.4,53.9,80.7,53.2,79.8,53.2z"></path><path class="st0" d="M79.8,64.6c-0.9,0-1.6,0.7-1.6,1.6v4.6c0,0.9,0.7,1.6,1.6,1.6s1.6-0.7,1.6-1.6v-4.6   C81.4,65.3,80.7,64.6,79.8,64.6z"></path><path class="st0" d="M42.6,34.9c-0.9,0-1.6,0.7-1.6,1.6V41c0,0.9,0.7,1.6,1.6,1.6c0.9,0,1.6-0.7,1.6-1.6v-4.6   C44.2,35.6,43.5,34.9,42.6,34.9z"></path><path class="st0" d="M42.6,46.4c-0.9,0-1.6,0.7-1.6,1.6v4.6c0,0.9,0.7,1.6,1.6,1.6c0.9,0,1.6-0.7,1.6-1.6v-4.6   C44.2,47.1,43.5,46.4,42.6,46.4z"></path><path class="st0" d="M49.9,34.9c-0.9,0-1.6,0.7-1.6,1.6V41c0,0.9,0.7,1.6,1.6,1.6c0.9,0,1.6-0.7,1.6-1.6v-4.6   C51.5,35.6,50.8,34.9,49.9,34.9z"></path><path class="st0" d="M49.9,46.4c-0.9,0-1.6,0.7-1.6,1.6v4.6c0,0.9,0.7,1.6,1.6,1.6c0.9,0,1.6-0.7,1.6-1.6v-4.6   C51.5,47.1,50.8,46.4,49.9,46.4z"></path><path class="st0" d="M57.2,34.9c-0.9,0-1.6,0.7-1.6,1.6V41c0,0.9,0.7,1.6,1.6,1.6s1.6-0.7,1.6-1.6v-4.6   C58.8,35.6,58.1,34.9,57.2,34.9z"></path><path class="st0" d="M57.2,46.4c-0.9,0-1.6,0.7-1.6,1.6v4.6c0,0.9,0.7,1.6,1.6,1.6s1.6-0.7,1.6-1.6v-4.6   C58.8,47.1,58.1,46.4,57.2,46.4z"></path><path class="st0" d="M82.9,84h-66c-0.9,0-1.6,0.7-1.6,1.6c0,0.9,0.7,1.6,1.6,1.6h66c0.9,0,1.6-0.7,1.6-1.6   C84.5,84.7,83.8,84,82.9,84z"></path><path class="st0" d="M79.8,91.9H20.1c-0.9,0-1.6,0.7-1.6,1.6c0,0.9,0.7,1.6,1.6,1.6h59.7c0.9,0,1.6-0.7,1.6-1.6   C81.4,92.6,80.7,91.9,79.8,91.9z"></path></g></svg>