<svg xmlns="http://www.w3.org/2000/svg" xmlns:xlink="http://www.w3.org/1999/xlink" version="1.1" x="0px" y="0px" viewBox="0 0 100 100" enable-background="new 0 0 100 100" xml:space="preserve"><path d="M5,39.86c0,9.311,3.625,18.065,10.21,24.649c6.584,6.585,15.337,10.21,24.65,10.21c8.718,0,16.947-3.179,23.364-8.988  l4.393,4.393c-1.581,2.702-1.24,6.227,1.074,8.541l14.27,14.27C84.292,94.267,86.064,95,87.948,95s3.654-0.734,4.986-2.066  C94.266,91.602,95,89.831,95,87.948s-0.733-3.655-2.066-4.987l-14.27-14.27c-1.332-1.332-3.103-2.065-4.986-2.065  c-1.277,0-2.498,0.344-3.57,0.976l-4.378-4.378c5.81-6.417,8.988-14.646,8.988-23.364c0-9.312-3.625-18.066-10.21-24.65  C57.925,8.625,49.171,5,39.86,5c-9.312,0-18.066,3.625-24.65,10.21C8.625,21.794,5,30.548,5,39.86z M71.197,71.197  c0.663-0.661,1.543-1.026,2.48-1.026c0.936,0,1.817,0.364,2.479,1.026l14.27,14.27c0.663,0.663,1.027,1.543,1.027,2.48  c0,0.936-0.365,1.817-1.027,2.479c-1.325,1.325-3.635,1.324-4.96,0l-14.27-14.27C69.831,74.791,69.831,72.565,71.197,71.197z   M8.546,39.86c0-8.365,3.257-16.228,9.172-22.143S31.495,8.546,39.86,8.546c8.364,0,16.227,3.257,22.142,9.172  s9.172,13.778,9.172,22.143c0,8.364-3.257,16.227-9.172,22.142s-13.778,9.172-22.142,9.172c-8.365,0-16.228-3.257-22.143-9.172  S8.546,48.224,8.546,39.86z"></path><path d="M19.475,40.86c-0.552,0-1-0.448-1-1c0-5.721,2.222-11.094,6.257-15.129c4.037-4.037,9.41-6.261,15.128-6.261  c0.552,0,1,0.448,1,1s-0.448,1-1,1c-5.184,0-10.055,2.015-13.714,5.675c-3.657,3.658-5.671,8.529-5.671,13.715  C20.475,40.413,20.027,40.86,19.475,40.86z"></path><path d="M58.78,58.78c-5.04,5.05-11.76,7.83-18.92,7.83s-13.88-2.78-18.92-7.83c-10.44-10.43-10.44-27.41,0-37.84  c5.04-5.05,11.76-7.83,18.92-7.83s13.88,2.78,18.92,7.83C69.21,31.37,69.21,48.35,58.78,58.78z M39.86,64.24  c6.52,0,12.65-2.53,17.25-7.13c9.51-9.51,9.51-24.99,0-34.5c-4.6-4.6-10.73-7.14-17.25-7.14s-12.65,2.54-17.25,7.14  c-9.51,9.51-9.51,24.99,0,34.5C27.21,61.71,33.34,64.24,39.86,64.24z"></path></svg>