<svg xmlns="http://www.w3.org/2000/svg" xmlns:xlink="http://www.w3.org/1999/xlink" version="1.1" x="0px" y="0px" viewBox="0 0 100 100" enable-background="new 0 0 100 100" xml:space="preserve"><path d="M93.207,84.553L75.148,66.494c11.005-15.155,9.68-36.479-3.984-50.143C63.596,8.784,53.677,5,43.758,5  C33.839,5,23.92,8.784,16.352,16.352c-15.136,15.136-15.136,39.676,0,54.812c7.568,7.568,17.487,11.352,27.406,11.352  c7.989,0,15.975-2.459,22.736-7.368l18.059,18.059C85.747,94.402,87.314,95,88.88,95c1.566,0,3.133-0.598,4.327-1.793  C95.597,90.818,95.597,86.943,93.207,84.553z M22.41,65.106c-11.771-11.771-11.771-30.925,0-42.696  c5.702-5.702,13.284-8.843,21.348-8.843c8.064,0,15.646,3.14,21.348,8.843c11.771,11.771,11.771,30.925,0,42.696  c-5.702,5.702-13.284,8.843-21.348,8.843C35.694,73.949,28.113,70.808,22.41,65.106z"></path></svg>