<svg xmlns="http://www.w3.org/2000/svg" xmlns:xlink="http://www.w3.org/1999/xlink" version="1.1" x="0px" y="0px" viewBox="0 0 100 100" style="enable-background:new 0 0 100 100;" xml:space="preserve"><g><path d="M97.826,69.532c-5.164-3.295-31.459-20.299-46.14-29.797c1.145-9.545-3.039-19.349-11.659-24.916   c-8.588-5.547-19.214-5.357-27.436-0.437l23.325,15.079l-0.65,13.189l-11.75,6.022L0.177,33.595   c-1.114,9.518,3.086,19.283,11.674,24.836c8.613,5.56,19.263,5.352,27.493,0.397c14.719,9.518,41.133,26.594,46.138,29.811   C92.487,93.146,105.065,74.16,97.826,69.532z"></path><g><rect x="-420.99" y="18.797" transform="matrix(0.9758 -0.2188 0.2188 0.9758 -15.7101 -90.3286)" width="10.472" height="13.962"></rect><rect x="-418.156" y="40.979" transform="matrix(-0.2187 -0.9758 0.9758 -0.2187 -546.1983 -344.8939)" width="13.967" height="10.474"></rect><rect x="-413.574" y="61.416" transform="matrix(-0.2187 -0.9758 0.9758 -0.2187 -560.5671 -315.5148)" width="13.961" height="10.476"></rect><rect x="-449.298" y="68.066" transform="matrix(-0.9758 0.2186 -0.2186 -0.9758 -860.9794 245.3507)" width="10.472" height="13.968"></rect><path d="M-408.648,81.424l2.762,12.333c3.363-1.851,6.465-4.056,9.261-6.57l-1.805-8.05L-408.648,81.424z"></path><path d="M-390.845,81.047c9.044-11.421,13.059-26.659,9.627-41.98c-3.436-15.318-13.569-27.387-26.623-33.855L-390.845,81.047z"></path><path d="M-435.899,87.53l-10.219,2.292l1.807,8.054c3.601,1.082,7.352,1.75,11.179,1.99L-435.899,87.53z"></path><path d="M-469.154,18.946c-9.046,11.421-13.061,26.663-9.628,41.985c3.435,15.32,13.569,27.391,26.622,33.858L-469.154,18.946z"></path><polygon points="-442.006,60.278 -445.058,46.656 -455.274,48.944 -452.225,62.572   "></polygon><path d="M-451.165,19.401l-2.949-13.164c-3.36,1.852-6.465,4.053-9.261,6.571l1.993,8.885L-451.165,19.401z"></path><path d="M-423.917,13.296l10.223-2.289l-1.991-8.883c-3.602-1.082-7.346-1.752-11.179-1.99L-423.917,13.296z"></path><polygon points="-446.583,39.841 -449.638,26.218 -459.86,28.505 -456.804,42.13   "></polygon></g><g><polygon points="-65.436,54.569 -83.541,59.42 -96.79,46.166 -91.939,28.066 -73.834,23.215 -60.585,36.464   "></polygon><path d="M-118.249,36.855l32.233,32.233l27.683-7.419l7.416-27.685L-83.15,1.753c16.738-4.538,35.358-0.273,48.497,12.861    c19.538,19.531,19.538,51.202,0,70.737c-19.531,19.531-51.206,19.531-70.737,0C-118.529,72.21-122.787,53.59-118.249,36.855z"></path></g><path d="M-304.192,0.345c-27.43-3.206-52.261,16.425-55.464,43.854c-3.209,27.419,16.426,52.253,43.851,55.457   c27.424,3.209,52.248-16.426,55.464-43.851C-257.139,28.385-276.767,3.547-304.192,0.345z M-281.91,65.746l-19.729-7.461   l-7.709,3.585l-7.421,19.605l-8.972-3.401l7.363-19.479l-3.737-8.043l-19.358-7.317l3.398-8.979l19.65,7.422l7.813-3.62   l7.382-19.533l8.979,3.395l-7.52,19.896l3.477,7.474l19.769,7.476L-281.91,65.746z"></path><path d="M-190.003,0C-217.616,0-240,22.39-240,50c0,27.617,22.384,50,49.997,50C-162.383,100-140,77.617-140,50   C-140,22.39-162.383,0-190.003,0z M-212.19,70.873c-3.337,1.924-7.604,0.781-9.531-2.559c-1.931-3.334-0.781-7.602,2.553-9.528   c3.339-1.927,7.604-0.784,9.53,2.556C-207.709,64.678-208.854,68.946-212.19,70.873z M-209.639,38.667   c-1.927,3.336-6.191,4.479-9.53,2.552c-3.334-1.928-4.483-6.191-2.553-9.532c1.927-3.332,6.194-4.479,9.531-2.552   C-208.854,31.061-207.709,35.327-209.639,38.667z M-190.003,86.628c-3.851,0-6.977-3.122-6.977-6.974   c0-3.854,3.126-6.979,6.977-6.979c3.857,0,6.982,3.125,6.982,6.979C-183.021,83.506-186.146,86.628-190.003,86.628z    M-190.003,27.329c-3.851,0-6.977-3.125-6.977-6.977c0-3.854,3.126-6.976,6.977-6.976c3.857,0,6.982,3.121,6.982,6.976   C-183.021,24.204-186.146,27.329-190.003,27.329z M-158.277,68.317c-1.927,3.337-6.195,4.479-9.531,2.552   c-3.34-1.923-4.482-6.194-2.552-9.527c1.927-3.34,6.19-4.482,9.53-2.556C-157.496,60.713-156.354,64.98-158.277,68.317z    M-160.83,41.218c-3.34,1.927-7.607,0.784-9.53-2.552c-1.931-3.34-0.788-7.605,2.552-9.532c3.336-1.927,7.604-0.78,9.531,2.552   C-156.354,35.024-157.496,39.291-160.83,41.218z"></path></g></svg>