<svg xmlns="http://www.w3.org/2000/svg" viewBox="0 0 344.89 27.5"><defs><style>.cls-1{fill:#0368b1;}.cls-2{fill:#00853f;}</style></defs><title>Asset 1</title><g id="Layer_2" data-name="Layer 2"><g id="Design"><path class="cls-1" d="M28.05,25.32h-.28a1.58,1.58,0,0,1-1.32-.42,4.34,4.34,0,0,1-.37-2.19c0-.12,0-.22,0-.3V7c0-.28,0-.67,0-1.07a2.59,2.59,0,0,1,.28-1.46,1.17,1.17,0,0,1,.9-.25l.6,0c.37,0,1.06-.08,1.07-.77A.57.57,0,0,0,28.67,3a.86.86,0,0,0-.48-.11c-.2,0-.4,0-.54,0H23.53a1.08,1.08,0,0,0-1.17.59l-7.5,17.19L8.24,4.1C8,3.56,7.94,2.9,7.11,2.91H2.78c-.14,0-.34,0-.54,0A.85.85,0,0,0,1.77,3a.56.56,0,0,0-.25.51c0,.69.71.77,1.07.77a3.49,3.49,0,0,1,1.56.19c.22.13.31.35.31.91,0,.22,0,.5,0,.82L3.28,22.7c-.16,1.85-.14,2.59-2.13,2.63-.32,0-1.09,0-1.15.66a.56.56,0,0,0,.26.51,1,1,0,0,0,.52.11c1.09,0,2.21-.15,3.31-.15s2.22.15,3.35.15A1.84,1.84,0,0,0,8,26.55.56.56,0,0,0,8.44,26c0-.68-.8-.66-1.18-.67H7.11c-2,0-2.3-1-2.34-2.68,0-.41,0-.85.06-1.3L5.89,6.22l7.27,18.71c.07.22.17.79.73.82s.61-.56.72-.78L22.79,5.8V22.41c0,.13,0,.28,0,.45,0,.71-.07,1.66-.5,2a3,3,0,0,1-1.64.48h-.28c-.37,0-1,0-1.05.67s.6.62.88.62c1.47,0,3-.15,4.43-.15,1.18,0,2.37.15,3.58.15.28,0,.87,0,.88-.62s-.69-.67-1.05-.67"/><path class="cls-1" d="M46.66,23.8c-.33,0-.47.3-.73.51a1.38,1.38,0,0,1-.94.42c-.52,0-.79-.38-1-1a6.78,6.78,0,0,1-.17-1.71V13.14c0-.25,0-.5,0-.74a2.47,2.47,0,0,0-.82-2.11,5.25,5.25,0,0,0-3.5-1,10.56,10.56,0,0,0-6.79,2.62,4.24,4.24,0,0,0-1.63,2.78.6.6,0,0,0,.2.5.73.73,0,0,0,.46.12,4.84,4.84,0,0,0,1.68-.5,2.39,2.39,0,0,0,1.12-1.42c.86-1.88,1.92-3,4.12-3s2.17,1.32,2.2,3.17v1.64c0,1.43.07,1.24-1.27,1.92l-2.87,1.34c-2,1-5.59,2.56-5.62,5.38,0,2,1.87,3.12,3.68,3.12A7.64,7.64,0,0,0,39,25.47c.53-.36,1-.72,1.3-1l.39-.32.12-.08h0l0,0c.36.38.71,2.54,2.49,2.56a5.06,5.06,0,0,0,2.75-1.11c.27-.25.94-.73,1-1.3a.46.46,0,0,0-.44-.48m-9.53-4.32,3.39-1.71a2.54,2.54,0,0,1,.33-.13h0s0,0,.05.09a1.36,1.36,0,0,1,0,.38c0,.17,0,.32,0,.4v2.24a3.05,3.05,0,0,1-.88,2.67,4.81,4.81,0,0,1-3.33,1.44c-1.32,0-2.39-.68-2.39-2C34.32,21.15,35.68,20.22,37.13,19.48Z"/><path class="cls-1" d="M63.12,23.09c-.36,0-.57.41-.68.5a5.87,5.87,0,0,1-4.16,1.59c-4,0-6.79-3.77-6.79-7.5a7.89,7.89,0,0,1,2.62-5.9,6.2,6.2,0,0,1,3.65-1.48,3.64,3.64,0,0,1,3,2c.71,1,1.1,2.07,1.9,2.13.63-.06.65-.77.66-1.28,0-.36,0-.7,0-.8s0-.47,0-.75a1.18,1.18,0,0,0-.41-1A9.18,9.18,0,0,0,58.2,9.27c-5.08,0-9.85,4-9.86,9.15a8.66,8.66,0,0,0,14,6.62c.26-.26,1.13-.91,1.18-1.48a.46.46,0,0,0-.44-.48"/><path class="cls-1" d="M86.84,25.32c-1.65,0-2.29-2-2.89-3.5L76.43,3.13c-.09-.19-.18-.76-.69-.82s-.69.68-.8.93L67.76,21.9a12.82,12.82,0,0,1-1.38,2.88,2.24,2.24,0,0,1-1.73.54c-.3,0-1.17,0-1.22.7,0,.52.51.62.86.62s.53,0,.66,0c1.06,0,2.1-.15,3.13-.15s2.07.15,3.13.15a2.23,2.23,0,0,0,.64-.07.56.56,0,0,0,.43-.56c0-.65-.69-.66-1-.67h-.14a4.79,4.79,0,0,1-1.51-.2c-.49-.18-.81-.44-.81-1a6.25,6.25,0,0,1,.51-2l1.12-2.79c.63-1.4.18-1.32,1.66-1.38h5.06c.9,0,1.24,0,1.41.19a6,6,0,0,1,.73,1.6l1.19,2.83A6.29,6.29,0,0,1,81,24.38c0,.47-.26.67-.7.81a5.63,5.63,0,0,1-1.5.13c-.34,0-1.21,0-1.26.74,0,.52.56.55.78.55,1.39,0,2.8-.15,4.13-.15,1.63,0,3.27.15,4.92.15.18,0,.71,0,.73-.55,0-.78-.91-.73-1.25-.74m-12.16-17a5.82,5.82,0,0,1,.45,1l2.53,6.31c.05.22.26.69.25.76s0,0-.1.09a1.28,1.28,0,0,1-.4,0H72.73c-.09,0-.35,0-.62,0a1.86,1.86,0,0,1-.45,0l-.1,0a2.73,2.73,0,0,1,.1-.37h0l2.57-6.78c0-.11.12-.37.23-.62a1.79,1.79,0,0,1,.17-.31l.06-.06"/><path class="cls-1" d="M99.73,9.5A4.49,4.49,0,0,0,96.58,11c-.37.38-.67.76-.9,1s-.21.25-.28.32l-.05,0a.92.92,0,0,1,0-.28c0-.12,0-.23,0-.3v-2a.87.87,0,0,0-.07-.4.47.47,0,0,0-.44-.24c-.43,0-.63.39-.8.54a8.21,8.21,0,0,1-3,1.89c-.29.11-1,.17-1,.8,0,.39.38.48.62.48h.48c.28,0,.82.06.94.24a3.86,3.86,0,0,1,.33,2v7.3c0,.41,0,.79,0,1.13,0,1-.1,1.58-1.53,1.75a4.14,4.14,0,0,0-.71.07.62.62,0,0,0-.5.63c0,.44.43.55.7.55,1.17,0,2.36-.15,3.54-.15s2.3.15,3.5.15a.68.68,0,0,0,.44-.13A.58.58,0,0,0,98,26c-.06-.72-.89-.61-1.2-.66-1.44-.17-1.5-.72-1.54-1.75,0-.34,0-.72,0-1.13V16.6c0-.12,0-.23,0-.33A4.88,4.88,0,0,1,96.15,13c.44-.56,1.06-1.28,1.76-1.27s1,1.36,2.38,1.42A1.64,1.64,0,0,0,102,11.46a2.11,2.11,0,0,0-2.3-2"/><path class="cls-1" d="M113,23.83c-.33,0-.56.37-1,.69a2.91,2.91,0,0,1-1.64.62,1.73,1.73,0,0,1-1.74-1.37,8.93,8.93,0,0,1-.28-2.65V11.54c0-.69.11-.61.52-.66l.68,0h2.09l.66,0a.63.63,0,0,0,.51-.17.9.9,0,0,0,.16-.63,1.13,1.13,0,0,0-.06-.44.47.47,0,0,0-.46-.26h-3.69c-.44-.07-.38-.08-.42-.57V6.21c0-.21-.06-.62-.47-.62a.64.64,0,0,0-.53.43,8.47,8.47,0,0,1-3.48,3.69c-.17.15-.51.31-.53.71s.54.49.84.5.44,0,.49,0h.4c.37.06.29-.1.35.5V21c0,.35,0,.72,0,1.1a5.81,5.81,0,0,0,.87,3.63A3.63,3.63,0,0,0,109,26.91a5.36,5.36,0,0,0,3.59-1.46,1.88,1.88,0,0,0,.8-1.17.45.45,0,0,0-.44-.44"/><path class="cls-1" d="M133.31,25.36c-1.43-.17-1.5-.72-1.54-1.75,0-.34,0-.72,0-1.13V16.22c0-1.73,0-3.59-1.11-5.09a5.44,5.44,0,0,0-4.42-1.86,7,7,0,0,0-5.57,2.4c0,.06-.3.23-.32.21s-.08,0-.12-.22V.63a.81.81,0,0,0-.07-.4.47.47,0,0,0-.44-.22,1.69,1.69,0,0,0-.89.45,9.58,9.58,0,0,1-3.27,1.12c-.23,0-.65.16-.67.58s.48.56.77.56H116c1.18,0,1.26.68,1.3,1.69,0,.37,0,.76,0,1.15V22.49c0,.41,0,.79,0,1.13,0,1-.1,1.58-1.53,1.75a4.07,4.07,0,0,0-.7.07.61.61,0,0,0-.5.63c0,.45.43.55.7.55,1.17,0,2.36-.15,3.54-.15s2.29.15,3.5.15a.68.68,0,0,0,.43-.13A.57.57,0,0,0,123,26c-.06-.72-.89-.61-1.2-.66-1.43-.17-1.5-.72-1.54-1.75,0-.34,0-.72,0-1.13V15.71c0-1.5,0-2.21,1.07-3.3a4.91,4.91,0,0,1,3.56-1.55,3.91,3.91,0,0,1,3.39,1.6,7.1,7.1,0,0,1,.6,3.59v6.44c0,.4,0,.78,0,1.13,0,1-.1,1.58-1.54,1.75a4.08,4.08,0,0,0-.7.07.61.61,0,0,0-.5.63c0,.45.43.55.7.55,1.17,0,2.36-.15,3.54-.15s2.3.15,3.5.15a.68.68,0,0,0,.44-.13.55.55,0,0,0,.19-.45c-.06-.72-.89-.61-1.2-.66"/><path class="cls-1" d="M153.18,24.06l-.5,0h-.28c-1,0-1-.41-1-1.27,0-.3,0-.65,0-1v-11c0-.14,0-.31,0-.49a.68.68,0,0,0-.12-.43.59.59,0,0,0-.49-.2h-4.57a.48.48,0,0,0-.31.09.44.44,0,0,0-.14.36c.07.72.91.65,1.22.66,1.38,0,1.45.58,1.49,1.59,0,.37,0,.78,0,1.21v7.11c0,.29,0,.56,0,.82a2.4,2.4,0,0,1-.6,1.81A4.94,4.94,0,0,1,144,25a4.14,4.14,0,0,1-3.57-1.63c-.63-1-.65-2.85-.65-4.08v-8c0-.17,0-.37,0-.58a1.2,1.2,0,0,0-.14-.63.72.72,0,0,0-.66-.31H134.6a.42.42,0,0,0-.28.09.41.41,0,0,0-.12.33c0,.74.88.69,1.18.7,1.42,0,1.48.59,1.52,1.61,0,.36,0,.77,0,1.2v5.66c0,.2,0,.4,0,.61A7.32,7.32,0,0,0,138,24.68a5.48,5.48,0,0,0,4.54,2.23,6.87,6.87,0,0,0,4-1.34,18.66,18.66,0,0,1,1.69-1.27s0,0,.1.14a1.91,1.91,0,0,1,.06.52c0,.3,0,.58,0,.69v.89a.73.73,0,0,0,0,.29.33.33,0,0,0,.3.18h0a1.19,1.19,0,0,0,.49-.24,11,11,0,0,1,3.7-1.59c.18-.09.84-.09.91-.66s-.45-.48-.66-.48"/><path class="cls-1" d="M165.65,9.5A4.49,4.49,0,0,0,162.5,11c-.37.38-.67.76-.9,1l-.28.33-.05,0a1,1,0,0,1,0-.28c0-.12,0-.23,0-.3v-2a.83.83,0,0,0-.07-.4.46.46,0,0,0-.44-.24c-.43,0-.63.38-.8.54a8.21,8.21,0,0,1-3,1.89c-.29.11-1,.17-1,.81,0,.38.39.48.62.48H157c.28,0,.82.06.94.23a3.85,3.85,0,0,1,.33,2v7.3c0,.41,0,.79,0,1.13,0,1-.1,1.58-1.53,1.75a4.28,4.28,0,0,0-.7.07.61.61,0,0,0-.5.63c0,.44.43.55.7.55,1.17,0,2.36-.15,3.54-.15s2.3.15,3.5.15a.66.66,0,0,0,.43-.13A.57.57,0,0,0,164,26c-.06-.72-.89-.61-1.2-.66-1.44-.17-1.5-.72-1.54-1.75,0-.34,0-.72,0-1.13V16.27a4.87,4.87,0,0,1,.82-3.29c.44-.56,1.06-1.28,1.76-1.27s1,1.36,2.38,1.42a1.64,1.64,0,0,0,1.74-1.67,2.11,2.11,0,0,0-2.3-2"/><path class="cls-2" d="M193.37,9.11c.53,0,.56-.61.56-1s0-.54,0-.64V4.87c0-.15,0-.33,0-.5a1.35,1.35,0,0,0-.12-.65.67.67,0,0,0-.64-.33c-4.12,0-8.19.15-12.27.15-1.13,0-2.2-.15-3.36-.15a.7.7,0,0,0-.79.66c0,.69.77.7,1.11.7,2.18.06,2.08.35,2.15,2.13,0,.2,0,.43,0,.67V22.89c0,.29,0,.56,0,.81-.06,1.72,0,2-2.15,2.11h-.14c-.3,0-.91,0-.93.63A.6.6,0,0,0,177,27a1,1,0,0,0,.52.12c1.37,0,2.73-.15,4.08-.15s2.63.15,4,.15a1,1,0,0,0,.52-.12.6.6,0,0,0,.27-.54c0-.61-.66-.63-1-.63h-.14c-2.18-.1-2.08-.38-2.15-2.22,0-.21,0-.44,0-.69V16c0-.63.09-.86.27-1a3.2,3.2,0,0,1,1.34-.13,20.09,20.09,0,0,1,4.29.33c.62.12.95,1.16,1.12,2.24,0,.22.13.75.64.79a.49.49,0,0,0,.4-.18,1,1,0,0,0,.17-.67c0-1.2-.11-2.32-.18-3.51.07-1,.14-2.14.18-3.19a.55.55,0,0,0-.57-.56c-.51,0-.6.56-.64.78-.16,1.1-.41,2.39-1.1,2.42a26,26,0,0,1-3.22.15h-1.08c-1.5-.07-1.53.16-1.61-1.57V6.62c0-.11,0-.23,0-.37,0-.52.08-1.15.37-1.26a12.12,12.12,0,0,1,3-.24c3.21,0,5.16,0,6.12,3.44.08.24.18.87.74.91"/><path class="cls-2" d="M201.3,9.75a8.31,8.31,0,0,0-6.24,2.55,9,9,0,0,0-2.36,6.12,8.61,8.61,0,1,0,17.2,0A8.93,8.93,0,0,0,207.19,12a8.4,8.4,0,0,0-5.89-2.21m0,1.06c3.78,0,5.7,4.15,5.7,7.87h0c0,3.49-2.05,7.63-5.56,7.64a5.09,5.09,0,0,1-4.28-2.67,10.53,10.53,0,0,1-1.52-5.42c0-3.75,2.07-7.41,5.66-7.42"/><path class="cls-2" d="M228.64,24.54l-.48,0h-.27c-.93,0-.95-.41-1-1.27,0-.3,0-.65,0-1V11.35c0-.14,0-.31,0-.49a.67.67,0,0,0-.11-.42.57.57,0,0,0-.48-.2H222a.46.46,0,0,0-.3.09.45.45,0,0,0-.13.36c.06.72.89.65,1.18.66,1.32,0,1.38.58,1.42,1.59,0,.37,0,.78,0,1.21v7.12c0,.29,0,.56,0,.82a2.46,2.46,0,0,1-.57,1.81,4.63,4.63,0,0,1-3.69,1.61,3.91,3.91,0,0,1-3.42-1.62,9,9,0,0,1-.62-4.08v-8c0-.17,0-.37,0-.58a1.23,1.23,0,0,0-.13-.62.7.7,0,0,0-.64-.31H210.8a.39.39,0,0,0-.28.09.41.41,0,0,0-.12.32c0,.74.85.7,1.14.7,1.35,0,1.41.58,1.46,1.6,0,.37,0,.77,0,1.2V19.8c0,.2,0,.41,0,.61a7.54,7.54,0,0,0,1.11,4.75,5.2,5.2,0,0,0,4.36,2.23,6.44,6.44,0,0,0,3.86-1.34,17.91,17.91,0,0,1,1.61-1.27s0,0,.09.13a1.94,1.94,0,0,1,.05.52c0,.3,0,.59,0,.7V27a.77.77,0,0,0,0,.29.33.33,0,0,0,.3.19h0a1.17,1.17,0,0,0,.48-.24,10.32,10.32,0,0,1,3.55-1.59c.17-.09.82-.09.88-.65s-.44-.48-.64-.48"/><path class="cls-2" d="M249.67,25.93a4.16,4.16,0,0,0-.66-.08c-1.37-.16-1.44-.72-1.47-1.75,0-.34,0-.72,0-1.13V16.49a7.33,7.33,0,0,0-1.11-4.65,5.17,5.17,0,0,0-4.36-2.08,6.56,6.56,0,0,0-4,1.56c-.74.59-1.36,1.18-1.65,1.4V10.53s0-.09,0-.13c0-.21-.06-.64-.5-.64s-.61.39-.77.54a7.88,7.88,0,0,1-2.89,1.89c-.28.11-.92.18-.95.8,0,.38.37.48.61.48h.46c.27,0,.78.06.9.23a4,4,0,0,1,.32,2c0,.12,0,.22,0,.3v7c0,.41,0,.79,0,1.13,0,1-.1,1.58-1.47,1.75a4,4,0,0,0-.68.07.62.62,0,0,0-.48.63c0,.44.42.55.68.55,1.12,0,2.27-.15,3.4-.15s2.2.15,3.36.15a.65.65,0,0,0,.42-.14.57.57,0,0,0,.18-.45.59.59,0,0,0-.5-.58,4.14,4.14,0,0,0-.66-.08c-1.37-.16-1.44-.72-1.47-1.75,0-.34,0-.72,0-1.13V16.71a4,4,0,0,1,1.1-3.31,4.63,4.63,0,0,1,3.41-1.54,3.72,3.72,0,0,1,3.21,1.59,7,7,0,0,1,.62,3.59V23c0,.41,0,.79,0,1.13,0,1-.1,1.58-1.47,1.75a4,4,0,0,0-.68.07.61.61,0,0,0-.48.63c0,.44.42.55.68.55,1.12,0,2.27-.15,3.4-.15s2.2.15,3.36.15A.64.64,0,0,0,250,27a.56.56,0,0,0,.18-.45.59.59,0,0,0-.5-.58"/><path class="cls-2" d="M269.31,23.72c-.36.05-.51.4-.81.71s-.6.6-.86.59-.21-.08-.29-.31a3,3,0,0,1-.09-.83c0-.24,0-.45,0-.58V1.11a.84.84,0,0,0-.07-.4.46.46,0,0,0-.43-.23,1.63,1.63,0,0,0-.87.45A8.84,8.84,0,0,1,262.78,2c-.23,0-.63.16-.65.58s.47.56.74.56h.36c1.12,0,1.21.68,1.24,1.69,0,.37,0,.77,0,1.15V9.56c0,.11,0,.34,0,.58a1.8,1.8,0,0,1-.05.49c0,.13-.07.13-.08.13a2.62,2.62,0,0,1-.61-.21,12,12,0,0,0-3.89-.8h-.31a8.72,8.72,0,0,0-5.94,2.74A8.45,8.45,0,0,0,251,18.61c0,4.55,3.24,8.78,7.9,8.78a6.85,6.85,0,0,0,3.74-1.28,16.87,16.87,0,0,1,1.77-1.22s0,0,0,.07a2.89,2.89,0,0,1,.13.95c0,.11,0,.39.06.64s.15.57.5.58a2,2,0,0,0,.84-.36l2.87-1.14c.38-.1.72-.25.72-.79l0-.48a1,1,0,0,0,0-.21.41.41,0,0,0-.38-.43m-9.25,1.71c-3.84,0-6-3.72-6-7.38s2.27-6.91,6.07-7.27l.35,0h0a4.88,4.88,0,0,1,3.17,1.16,3.8,3.8,0,0,1,.81,2.86v.48h0V22c0,.24,0,.45,0,.65a1.59,1.59,0,0,1-.33,1.1,5.37,5.37,0,0,1-4.08,1.68"/><path class="cls-2" d="M286.44,24.28c-.33,0-.46.3-.71.51a1.29,1.29,0,0,1-.89.42c-.5,0-.75-.37-.91-1a7,7,0,0,1-.17-1.71s0-.1,0-.14V13.62c0-.25,0-.5,0-.74a2.52,2.52,0,0,0-.79-2.11,4.94,4.94,0,0,0-3.37-1,9.94,9.94,0,0,0-6.52,2.62,4.28,4.28,0,0,0-1.56,2.77.61.61,0,0,0,.19.5.69.69,0,0,0,.45.12,4.52,4.52,0,0,0,1.62-.51,2.37,2.37,0,0,0,1.08-1.43c.83-1.88,1.85-3,4-3s2.08,1.32,2.11,3.17v1.64c0,1.43.07,1.24-1.22,1.93L277,18.9c-2,1-5.36,2.56-5.39,5.38a3.31,3.31,0,0,0,3.54,3.12,7.12,7.12,0,0,0,4-1.45,15.71,15.71,0,0,0,1.25-1l.38-.31.11-.08h0l0,0c.35.38.68,2.54,2.4,2.56a4.77,4.77,0,0,0,2.64-1.12c.26-.25.9-.73.93-1.3a.46.46,0,0,0-.43-.48M281,18.59c0,.17,0,.32,0,.4v2.23a3.15,3.15,0,0,1-.85,2.67,4.53,4.53,0,0,1-3.19,1.43,2,2,0,0,1-2.29-2c0-1.68,1.31-2.6,2.69-3.34l3.25-1.71a2.81,2.81,0,0,1,.31-.13s0,0,0,.09a1.46,1.46,0,0,1,0,.38m-1.16-.87Z"/><path class="cls-2" d="M296.8,24.32c-.33,0-.55.37-1,.69a2.7,2.7,0,0,1-1.57.62,1.66,1.66,0,0,1-1.67-1.37,9.29,9.29,0,0,1-.27-2.66v-.16h0V12c0-.7.1-.61.49-.66l.65,0h2l.63,0a.62.62,0,0,0,.5-.17.93.93,0,0,0,.15-.62,1.19,1.19,0,0,0-.06-.44.44.44,0,0,0-.45-.25h-3.54c-.41-.07-.35-.08-.39-.57V6.69c0-.21-.06-.62-.46-.63a.63.63,0,0,0-.52.44A8.3,8.3,0,0,1,288,10.2c-.16.15-.49.31-.5.71s.52.5.82.5.42,0,.47,0h.39c.35.06.27-.1.33.5v9.57c0,.35,0,.72,0,1.11a6,6,0,0,0,.83,3.62A3.43,3.43,0,0,0,293,27.39a5,5,0,0,0,3.45-1.46,1.88,1.88,0,0,0,.77-1.17.45.45,0,0,0-.43-.44"/><path class="cls-2" d="M302.53,6.87a1.84,1.84,0,0,0,1.75-2,1.83,1.83,0,0,0-1.68-2,1.91,1.91,0,0,0-1.79,2,1.8,1.8,0,0,0,1.71,2"/><path class="cls-2" d="M306.07,25.92a4.52,4.52,0,0,0-.66-.08c-1.37-.16-1.43-.71-1.47-1.75,0-.34,0-.72,0-1.13h0V10.53s0-.09,0-.13c0-.21-.06-.64-.5-.64s-.61.39-.77.54a7.91,7.91,0,0,1-2.89,1.89c-.28.11-.92.18-.95.8,0,.38.37.48.61.48h.46c.27,0,.78.06.9.23a4,4,0,0,1,.32,2c0,.12,0,.22,0,.3v7c0,.41,0,.78,0,1.13,0,1-.1,1.59-1.47,1.75a4,4,0,0,0-.68.07.61.61,0,0,0-.48.63c0,.44.42.55.68.55,1.12,0,2.27-.15,3.4-.15s2.2.15,3.36.15a.65.65,0,0,0,.42-.14.57.57,0,0,0,.18-.45.59.59,0,0,0-.5-.58"/><path class="cls-2" d="M316,9.75a8.32,8.32,0,0,0-6.24,2.55,9,9,0,0,0-2.36,6.12,8.61,8.61,0,1,0,17.2,0A9,9,0,0,0,321.94,12,8.41,8.41,0,0,0,316,9.75m5.66,8.93h0c0,3.49-2.06,7.63-5.56,7.64a5.09,5.09,0,0,1-4.28-2.67,10.55,10.55,0,0,1-1.52-5.42c0-3.75,2.07-7.41,5.66-7.42,3.78,0,5.7,4.15,5.7,7.87"/><path class="cls-2" d="M344.4,25.92a4.28,4.28,0,0,0-.66-.08c-1.37-.16-1.44-.71-1.47-1.75,0-.34,0-.72,0-1.13V16.49a7.31,7.31,0,0,0-1.11-4.65,5.17,5.17,0,0,0-4.36-2.08,6.57,6.57,0,0,0-4,1.56c-.74.59-1.36,1.18-1.65,1.4V10.39c0-.21-.06-.64-.5-.64s-.61.39-.77.54A7.83,7.83,0,0,1,327,12.18c-.28.11-.92.18-.95.8,0,.38.38.48.61.48h.47c.27,0,.78.06.9.23a4,4,0,0,1,.32,2c0,.12,0,.22,0,.3h0v7c0,.41,0,.79,0,1.13,0,1-.1,1.59-1.46,1.75a4,4,0,0,0-.68.07.61.61,0,0,0-.48.63c0,.44.42.55.68.55,1.12,0,2.27-.15,3.4-.15s2.2.15,3.36.15a.63.63,0,0,0,.42-.13.58.58,0,0,0,.18-.45.6.6,0,0,0-.5-.58,4.3,4.3,0,0,0-.66-.08c-1.37-.16-1.43-.71-1.47-1.75,0-.34,0-.72,0-1.13V16.71a4,4,0,0,1,1.1-3.31,4.63,4.63,0,0,1,3.41-1.55,3.73,3.73,0,0,1,3.21,1.59,7,7,0,0,1,.62,3.59V23c0,.41,0,.78,0,1.12,0,1-.1,1.59-1.47,1.75a4,4,0,0,0-.68.07.61.61,0,0,0-.48.63c0,.44.42.55.68.55,1.13,0,2.27-.15,3.4-.15s2.2.15,3.36.15a.64.64,0,0,0,.43-.13.57.57,0,0,0,.18-.45.6.6,0,0,0-.5-.58"/></g></g></svg>